Coordinates
version=1
nRows=16
nColumns=40
inDegrees=yes

Units are S.I. units (second, meters, Newtons, ...)
Angles are in degrees.

endheader
time	pelvis_tilt	pelvis_list	pelvis_rotation	pelvis_tx	pelvis_ty	pelvis_tz	hip_flexion_r	hip_adduction_r	hip_rotation_r	knee_angle_r	knee_angle_r_beta	ankle_angle_r	subtalar_angle_r	mtp_angle_r	hip_flexion_l	hip_adduction_l	hip_rotation_l	knee_angle_l	knee_angle_l_beta	ankle_angle_l	subtalar_angle_l	mtp_angle_l	lumbar_extension	lumbar_bending	lumbar_rotation	arm_flex_r	arm_add_r	arm_rot_r	elbow_flex_r	pro_sup_r	wrist_flex_r	wrist_dev_r	arm_flex_l	arm_add_l	arm_rot_l	elbow_flex_l	pro_sup_l	wrist_flex_l	wrist_dev_l
      0.65000000	     -3.87246112	     -5.39474109	     -5.29329762	      0.43966391	      0.82475445	      0.24585228	     20.16344523	     10.70255036	     -3.16487106	    -52.05073947	     -0.90845678	     21.14904345	    -11.49206955	     -8.29880276	     27.59070255	      9.17671250	      3.26458847	    -92.63820856	     -1.61684175	     -2.06956805	     10.26779395	    -15.57371418	     -7.44748363	      9.37943684	      4.77546852	     -1.83712461	    -27.23098373	     10.67360953	     89.40530612	     89.95437384	      0.00000000	      0.00000000	    -13.28050975	     16.82040575	    -16.96758760	     79.21162635	     89.95437384	      0.00000000	      0.00000000
      0.66000000	     -4.21194869	     -4.71814236	     -5.69861503	      0.47092441	      0.82588412	      0.24686597	     17.17190960	      9.83065927	     -2.27434806	    -50.49020064	     -0.88122024	     21.73151518	    -10.36296016	     -8.80530003	     31.17102158	      8.73272954	      3.34171923	    -91.44130390	     -1.59595183	     -0.36070291	      9.24971437	    -15.75194069	     -7.03786802	      8.54175262	      5.72009884	      0.14051812	    -26.57992245	     10.50347742	     91.59149967	     89.95437384	      0.00000000	      0.00000000	    -16.15357624	     18.11793148	    -15.35270757	     79.90388206	     89.95437384	      0.00000000	      0.00000000
      0.67000000	     -4.60196304	     -3.93165286	     -5.85674428	      0.50237176	      0.82807435	      0.24736480	     14.13605594	      8.58089759	     -1.80258750	    -48.51936617	     -0.84682269	     21.51722151	     -8.54123148	    -10.52995062	     34.52454632	      7.94661582	      3.37174119	    -89.31125509	     -1.55877546	      0.54135577	      8.46963950	    -16.47003503	     -6.52323176	      7.60583829	      6.52007866	      1.96122796	    -25.87076828	      9.98623961	     93.82272890	     89.95437384	      0.00000000	      0.00000000	    -19.05678881	     19.51905281	    -13.75738571	     81.11755394	     89.95437384	      0.00000000	      0.00000000
      0.68000000	     -5.54882261	     -3.20193521	     -5.96790411	      0.53408697	      0.83032045	      0.24790101	     11.74441583	      7.46828971	     -1.49676686	    -46.39264015	     -0.80970432	     20.56159635	     -7.87217327	    -10.33377117	     38.25368582	      7.25246407	      3.50640733	    -86.55811464	     -1.51072409	      1.03086325	      8.11584697	    -16.05186635	     -5.29307109	      6.81528640	      7.59171056	      3.01065449	    -25.14959147	      8.89430738	     96.41437892	     89.95437384	      0.00000000	      0.00000000	    -21.72925575	     21.20774390	    -12.71647737	     82.54319385	     89.95437384	      0.00000000	      0.00000000
      0.69000000	     -5.65926940	     -2.54961465	     -5.94242417	      0.56804527	      0.83497772	      0.24819234	      8.11472605	      6.20200913	     -1.52442083	    -43.65002506	     -0.76183666	     18.75976013	     -6.66231284	    -11.17606531	     40.20280499	      6.48540128	      3.81859345	    -82.67278893	     -1.44291237	      1.45218801	      7.90920415	    -16.55039834	     -4.79425075	      6.02762204	      8.49307316	      3.79629811	    -24.35643544	      7.89942690	     98.96049668	     89.95437384	      0.00000000	      0.00000000	    -24.56323472	     22.62529600	    -11.26815552	     84.07523969	     89.95437384	      0.00000000	      0.00000000
      0.70000000	     -6.36134743	     -1.78259561	     -6.10090733	      0.60210968	      0.83938397	      0.24867087	      5.53256274	      4.88784882	     -1.53683118	    -41.33963544	     -0.72151275	     15.67964544	     -5.58964722	    -10.86718970	     42.44750378	      5.79348217	      4.41268396	    -78.19371658	     -1.36473781	      1.18198144	      7.53126309	    -16.17554672	     -3.52526604	      5.18541986	      9.59026267	      4.25717157	    -23.57035123	      6.72860547	    101.42924025	     89.95437384	      0.00000000	      0.00000000	    -27.31838258	     24.17585133	    -10.25445237	     85.71900663	     89.95437384	      0.00000000	      0.00000000
      0.71000000	     -6.07611393	     -1.01913284	     -6.13963676	      0.63756125	      0.84581197	      0.24895002	      1.77034057	      3.29184447	     -2.13953314	    -38.63678755	     -0.67433916	     11.84259100	     -4.08105035	    -10.67137666	     42.92976794	      4.98027458	      5.23372400	    -72.85051645	     -1.27148137	      0.58633370	      7.17314231	    -16.17409885	     -3.27945391	      4.24747916	     10.66943504	      4.55897923	    -23.07507322	      5.90008060	    103.95966217	     89.95437384	      0.00000000	      0.00000000	    -29.79541625	     25.81845706	     -9.60413153	     87.44182898	     89.95437384	      0.00000000	      0.00000000
      0.72000000	     -6.40360903	     -0.29191943	     -6.37588653	      0.67301300	      0.85182074	      0.24931353	     -0.92630826	      1.76489424	     -2.83812723	    -36.28253973	     -0.63324978	      6.99964900	     -2.77999048	     -9.91452344	     43.71004931	      4.26665762	      6.07986557	    -66.95629342	     -1.16860778	     -0.97308577	      6.86620821	    -15.62405539	     -2.32313461	      3.46088843	     11.80768867	      4.63918833	    -22.58144941	      5.14790406	    106.29956420	     89.95437384	      0.00000000	      0.00000000	    -32.33683463	     27.16444144	     -8.79971963	     88.93774103	     89.95437384	      0.00000000	      0.00000000
      0.73000000	     -7.11303382	      0.29139580	     -6.63546239	      0.70862886	      0.85749574	      0.24962019	     -3.00635478	      0.51551498	     -3.23542447	    -33.96839993	     -0.59286042	      1.58828129	     -1.40375216	     -9.02119957	     44.56526630	      3.66485835	      6.76195263	    -60.61912756	     -1.05800337	     -3.07928016	      6.61966540	    -14.81935204	     -0.91103099	      2.91830476	     12.82142887	      4.51402214	    -22.06656692	      4.55870734	    108.50217527	     89.95437384	      0.00000000	      0.00000000	    -34.95394380	     28.27427754	     -7.96445805	     90.22246681	     89.95437384	      0.00000000	      0.00000000
      0.74000000	     -6.84570583	      0.87976999	     -6.68295498	      0.74517513	      0.86454235	      0.24912310	     -6.09965102	     -1.16536588	     -5.03947576	    -31.26610278	     -0.54569644	     -5.65833303	      0.01674879	     -7.47300033	     43.82771730	      2.63722209	      7.23442798	    -53.57867806	     -0.93512434	     -6.57489119	      6.40272324	    -13.62064233	     -0.59403594	      2.32572482	     13.56178940	      4.43730273	    -21.90373094	      4.28810160	    110.62191944	     89.95437384	      0.00000000	      0.00000000	    -37.30145883	     29.33009612	     -7.26535308	     91.42453280	     89.95437384	      0.00000000	      0.00000000
      0.75000000	     -7.16567237	      1.31977711	     -6.72570816	      0.78153698	      0.87034849	      0.24871614	     -8.32169016	     -2.39196534	     -6.44455153	    -28.61679033	     -0.49945721	    -13.44585026	      1.03981238	     -5.48734195	     43.54676744	      1.76215151	      7.40035693	    -46.43192139	     -0.81038991	    -10.48286350	      5.94922438	    -12.15056216	      0.36522029	      1.96619678	     14.09569297	      4.18870855	    -21.70052242	      4.32289759	    112.48441783	     89.95437384	      0.00000000	      0.00000000	    -39.84336085	     30.03945690	     -6.18023798	     92.51892716	     89.95437384	      0.00000000	      0.00000000
      0.76000000	     -7.38024624	      1.45951175	     -6.63339269	      0.81797343	      0.87586335	      0.24841211	    -10.46716412	     -3.09772335	     -7.60553214	    -26.16190950	     -0.45661146	    -19.63755299	      2.19603688	     13.67266301	     43.00280502	      1.06558486	      7.19070166	    -39.67425262	     -0.69244634	    -12.29223038	      3.34059469	      1.74663345	      1.14958712	      1.90787966	     14.37202867	      3.85644063	    -21.49989070	      4.43573841	    114.15131444	     89.95437384	      0.00000000	      0.00000000	    -42.30669528	     30.71156249	     -5.28133175	     93.64732633	     89.95437384	      0.00000000	      0.00000000
      0.77000000	     -7.79778541	      1.46281231	     -6.59844928	      0.85405463	      0.88029328	      0.24810278	    -12.15429132	     -3.53834142	     -8.13414520	    -23.98530580	     -0.41862256	    -25.67694756	      1.95886116	     14.91241653	     42.54654416	      0.66022920	      7.23892407	    -33.08262591	     -0.57740075	    -16.00617023	      3.34294099	      3.09025937	      2.07772737	      2.03968537	     14.58899758	      3.45194688	    -21.49287998	      4.75866477	    115.59294094	     89.95437384	      0.00000000	      0.00000000	    -44.61494316	     31.21380600	     -4.38299635	     94.66673568	     89.95437384	      0.00000000	      0.00000000
      0.78000000	     -7.88325403	      1.28465317	     -6.34314801	      0.89015050	      0.88425828	      0.24794748	    -14.01300009	     -3.57303930	     -8.22132163	    -22.35983420	     -0.39025273	    -29.94255929	      0.81854800	     16.03695957	     41.67244931	      0.31793954	      7.33032563	    -27.04449833	     -0.47201554	    -18.66328627	      3.54241195	      4.86290325	      2.56010184	      2.25586244	     14.56173515	      2.92902510	    -21.47405195	      5.08956404	    116.76834399	     89.95437384	      0.00000000	      0.00000000	    -46.59241244	     31.78193296	     -3.69816652	     95.69227573	     89.95437384	      0.00000000	      0.00000000
      0.79000000	     -8.17587537	      0.97033376	     -6.08586322	      0.92541996	      0.88666304	      0.24766672	    -14.80782881	     -3.34647095	     -7.85042830	    -22.49415563	     -0.39259708	    -31.59726904	     -1.44556325	     17.02309686	     41.13523524	      0.11193531	      7.44447809	    -22.10498412	     -0.38580475	    -19.17949845	      4.32244833	      6.83937160	      3.14382899	      2.62633650	     14.42098252	      2.42367423	    -21.63337663	      5.56524965	    117.58314999	     89.95437384	      0.00000000	      0.00000000	    -48.24059233	     32.31989246	     -3.22373704	     96.66464356	     89.95437384	      0.00000000	      0.00000000
      0.80000000	     -8.58824926	      0.75345918	     -5.74903863	      0.95968023	      0.88736908	      0.24700052	    -14.55588456	     -3.17767461	     -7.50945169	    -24.64328241	     -0.43010642	    -30.40874670	     -4.79261341	     17.51128632	     41.07886895	      0.00284321	      8.74409583	    -18.65246503	     -0.32554693	    -18.55246942	      4.84875230	      7.92246788	      3.72490365	      2.87332607	     14.16401561	      1.99106934	    -21.86300488	      5.93541744	    118.06326526	     89.95437384	      0.00000000	      0.00000000	    -49.46702420	     32.90290740	     -3.09013698	     97.75001380	     89.95437384	      0.00000000	      0.00000000
